<?xml version="1.0" standalone="no"?>
<!DOCTYPE svg PUBLIC "-//W3C//DTD SVG 20010904//EN"
 "http://www.w3.org/TR/2001/REC-SVG-20010904/DTD/svg10.dtd">
<svg version="1.0" xmlns="http://www.w3.org/2000/svg"
 width="225.000000pt" height="225.000000pt" viewBox="0 0 225.000000 225.000000"
 preserveAspectRatio="xMidYMid meet">

<g transform="translate(0.000000,225.000000) scale(0.100000,-0.100000)"
fill="#000000" stroke="none">
<path d="M960 2173 c-25 -9 -40 -35 -40 -68 0 -26 18 -49 123 -153 130 -128
149 -139 195 -106 16 11 22 25 22 51 0 33 -11 47 -117 154 -113 113 -147 136
-183 122z"/>
<path d="M1958 2053 c-139 -138 -150 -159 -105 -201 44 -42 63 -32 200 106
136 138 145 155 102 197 -42 43 -59 34 -197 -102z"/>
<path d="M1497 2152 c-13 -15 -17 -39 -17 -115 0 -84 3 -100 20 -117 27 -27
66 -25 95 5 23 22 25 32 25 108 0 70 -3 89 -21 111 -25 32 -77 36 -102 8z"/>
<path d="M830 1429 c-482 -184 -693 -269 -713 -287 -55 -52 -60 -143 -11 -201
30 -36 48 -43 358 -136 137 -41 253 -78 258 -83 4 -4 45 -133 91 -286 46 -152
93 -290 104 -304 62 -85 191 -78 245 14 9 16 132 332 273 703 275 722 268 698
225 769 -21 34 -87 72 -125 72 -11 -1 -328 -118 -705 -261z m709 83 c-78 -221
-497 -1297 -504 -1295 -5 1 -49 131 -97 289 -73 242 -91 292 -116 316 -24 25
-74 43 -316 116 -158 48 -288 92 -289 97 -2 11 1313 516 1325 509 4 -3 2 -17
-3 -32z"/>
<path d="M1925 1595 c-30 -29 -32 -68 -5 -95 17 -17 33 -20 118 -20 111 0 132
11 132 68 0 53 -37 72 -137 72 -76 0 -86 -2 -108 -25z"/>
<path d="M1850 1240 c-41 -41 -29 -65 102 -197 107 -108 126 -123 155 -123 40
0 73 30 73 67 0 21 -26 53 -123 150 -106 106 -127 123 -155 123 -19 0 -40 -8
-52 -20z"/>
</g>
</svg>
