<?xml version="1.0" standalone="no"?>
<!DOCTYPE svg PUBLIC "-//W3C//DTD SVG 20010904//EN"
 "http://www.w3.org/TR/2001/REC-SVG-20010904/DTD/svg10.dtd">
<svg version="1.0" xmlns="http://www.w3.org/2000/svg"
 width="225.000000pt" height="225.000000pt" viewBox="0 0 225.000000 225.000000"
 preserveAspectRatio="xMidYMid meet">

<g transform="translate(0.000000,225.000000) scale(0.100000,-0.100000)"
fill="#000000" stroke="none">
<path d="M0 1125 l0 -1125 1125 0 1125 0 0 1125 0 1125 -1125 0 -1125 0 0
-1125z m1535 717 c312 -181 360 -212 363 -234 4 -33 16 -25 -388 -258 -310
-180 -339 -194 -385 -194 -47 -1 -70 10 -395 198 -190 109 -355 209 -368 223
-17 19 -20 28 -12 43 5 10 170 111 367 224 336 193 360 206 408 206 47 0 72
-12 410 -208z m-846 -552 c277 -161 351 -208 371 -237 l25 -36 3 -378 c3 -365
2 -379 -17 -398 -11 -11 -27 -17 -38 -14 -10 2 -171 93 -358 201 -304 177
-342 201 -362 237 -22 40 -23 44 -23 417 0 329 2 379 16 392 8 9 20 16 26 16
6 0 166 -90 357 -200z m1255 184 c14 -13 16 -63 16 -392 0 -373 -1 -377 -23
-417 -20 -36 -58 -60 -362 -237 -187 -108 -348 -199 -358 -201 -11 -3 -27 3
-38 14 -18 18 -19 37 -19 377 0 203 4 372 10 392 5 20 24 50 42 67 28 25 641
387 688 406 24 9 28 8 44 -9z"/>
<path d="M1055 1985 c-138 -51 -43 -175 111 -144 65 13 96 40 92 82 -6 59
-119 94 -203 62z"/>
<path d="M1305 1826 c-41 -18 -57 -40 -53 -72 10 -86 210 -101 263 -21 20 32
8 59 -38 87 -38 23 -126 26 -172 6z"/>
<path d="M531 1677 c-19 -7 -43 -24 -54 -39 -17 -23 -19 -31 -9 -53 33 -73
220 -75 265 -4 5 9 7 28 3 43 -13 53 -124 81 -205 53z"/>
<path d="M1585 1679 c-41 -11 -75 -45 -75 -73 0 -72 161 -107 244 -53 97 64
-38 165 -169 126z"/>
<path d="M781 1513 c-49 -26 -64 -51 -48 -83 20 -41 72 -62 144 -58 80 5 118
30 118 78 0 48 -38 73 -118 78 -46 2 -71 -2 -96 -15z"/>
<path d="M1044 1362 c-121 -57 -23 -166 125 -140 90 16 121 91 54 131 -49 28
-129 32 -179 9z"/>
<path d="M372 1383 c-7 -3 -17 -16 -23 -30 -31 -82 93 -240 160 -204 92 50
-39 273 -137 234z"/>
<path d="M850 1085 c-8 -9 -11 -33 -8 -63 10 -104 121 -198 172 -146 37 37 3
152 -58 199 -37 28 -87 33 -106 10z"/>
<path d="M604 955 c-49 -75 74 -252 150 -217 65 29 18 185 -69 226 -46 22 -62
20 -81 -9z"/>
<path d="M363 838 c-45 -59 9 -189 94 -224 85 -36 113 68 43 164 -44 61 -113
91 -137 60z"/>
<path d="M862 554 c-47 -33 -22 -135 49 -199 62 -56 119 -41 119 33 0 99 -109
207 -168 166z"/>
<path d="M1804 1371 c-83 -50 -122 -190 -63 -222 67 -35 191 122 160 204 -16
41 -50 47 -97 18z"/>
<path d="M1285 1065 c-105 -105 -76 -254 36 -188 45 27 81 86 87 143 6 60 -8
80 -54 80 -25 0 -42 -9 -69 -35z"/>
<path d="M1803 830 c-82 -50 -122 -189 -63 -220 47 -25 138 53 159 136 22 88
-24 128 -96 84z"/>
<path d="M1320 551 c-104 -55 -138 -231 -44 -231 30 0 96 59 118 104 24 51 21
111 -6 130 -28 20 -26 20 -68 -3z"/>
</g>
</svg>
