<?xml version="1.0" standalone="no"?>
<!DOCTYPE svg PUBLIC "-//W3C//DTD SVG 20010904//EN"
 "http://www.w3.org/TR/2001/REC-SVG-20010904/DTD/svg10.dtd">
<svg version="1.0" xmlns="http://www.w3.org/2000/svg"
 width="200.000000pt" height="200.000000pt" viewBox="0 0 200.000000 200.000000"
 preserveAspectRatio="xMidYMid meet">

<g transform="translate(0.000000,200.000000) scale(0.100000,-0.100000)"
fill="#000000" stroke="none">
<path d="M960 1626 l0 -123 -52 -6 c-114 -14 -267 -116 -337 -226 -32 -50 -65
-137 -76 -203 l-6 -38 -119 0 -120 0 0 -35 0 -35 119 0 119 0 16 -70 c45 -199
203 -356 394 -393 l62 -12 0 -122 0 -123 40 0 40 0 0 123 0 123 63 13 c193 39
349 194 393 390 l16 71 119 0 119 0 0 35 0 35 -120 0 -119 0 -6 38 c-36 213
-201 386 -403 425 l-62 12 0 122 0 123 -40 0 -40 0 0 -124z m2 -283 l3 -88 35
0 35 0 3 88 c2 78 5 88 20 83 9 -2 33 -8 52 -11 88 -18 213 -112 264 -199 25
-42 56 -136 56 -168 0 -16 -9 -18 -85 -18 l-85 0 0 -35 0 -35 86 0 87 0 -7
-42 c-10 -66 -60 -162 -112 -218 -58 -62 -131 -105 -212 -124 l-62 -14 0 89 0
89 -40 0 -40 0 0 -89 0 -89 -62 14 c-34 8 -83 26 -110 41 -99 54 -197 191
-214 301 l-7 42 87 0 86 0 0 35 0 35 -85 0 c-99 0 -97 -2 -65 101 23 75 43
107 105 170 64 65 169 118 257 128 4 1 9 -38 10 -86z"/>
</g>
</svg>
