<?xml version="1.0" encoding="UTF-8" standalone="no"?>
<svg
   version="1.0"
   width="225.000000pt"
   height="225.000000pt"
   viewBox="0 0 225.000000 225.000000"
   preserveAspectRatio="xMidYMid meet"
   id="svg2"
   sodipodi:docname="завантаження-_1_.svg"
   inkscape:version="1.3.2 (091e20e, 2023-11-25, custom)"
   xmlns:inkscape="http://www.inkscape.org/namespaces/inkscape"
   xmlns:sodipodi="http://sodipodi.sourceforge.net/DTD/sodipodi-0.dtd"
   xmlns="http://www.w3.org/2000/svg"
   xmlns:svg="http://www.w3.org/2000/svg">
  <defs
     id="defs2" />
  <sodipodi:namedview
     id="namedview2"
     pagecolor="#ffffff"
     bordercolor="#000000"
     borderopacity="0.25"
     inkscape:showpageshadow="2"
     inkscape:pageopacity="0.0"
     inkscape:pagecheckerboard="0"
     inkscape:deskcolor="#d1d1d1"
     inkscape:document-units="pt"
     inkscape:zoom="3.9366667"
     inkscape:cx="150"
     inkscape:cy="150"
     inkscape:window-width="2560"
     inkscape:window-height="1377"
     inkscape:window-x="-8"
     inkscape:window-y="-8"
     inkscape:window-maximized="1"
     inkscape:current-layer="svg2" />
  <g
     transform="matrix(0.1,0,0,-0.1,-19.115705,193.86277)"
     fill="#000000"
     stroke="none"
     id="g2">
    <path
       d="M 940,1926 C 618,1854 367,1640 250,1338 127,1019 201,628 433,378 c 37,-40 50,-48 80,-48 26,0 40,6 51,22 26,36 19,63 -30,120 -103,120 -161,237 -190,381 -22,109 -15,284 16,382 86,271 298,474 570,546 113,30 281,30 391,1 216,-57 402,-205 507,-402 61,-113 83,-197 89,-331 11,-233 -52,-408 -214,-592 -36,-41 -41,-71 -17,-105 11,-16 25,-22 51,-22 30,0 43,8 80,47 232,251 306,642 183,961 -117,304 -371,519 -693,587 -82,18 -289,18 -367,1 z"
       id="path1" />
    <path
       d="m 1263,1247 c -190,-190 -203,-205 -203,-239 0,-42 27,-68 69,-68 37,0 441,404 441,441 0,36 -34,69 -73,69 -28,0 -55,-24 -234,-203 z"
       id="path2" />
  </g>
</svg>
